<?xml version="1.0" encoding="utf-8"?>
<?xml-stylesheet type="text/xsl" href="rss1.xsl"?>
<rss version="2.0" xmlns:atom="http://www.w3.org/2005/Atom" xmlns:content="http://purl.org/rss/1.0/modules/content/" xmlns:dc="http://purl.org/dc/elements/1.1/" xmlns:media="http://search.yahoo.com/mrss/">
<channel>
 <title>Getty</title>
 <link>http://www.gettyimg.com/</link>
 <atom:link href="http://www.gettyimg.com/" rel="self" type="application/rss+xml" />

 
                <item>
                <title><![CDATA[【Requests】[REQ CAP] - [REQ AUD] Juliana Gattas - Maquillada en la cama (2024) - FLAC]]></title>
                <link><![CDATA[https://sharemania.us/threads/req-aud-juliana-gattas-maquillada-en-la-cama-2024-flac.239450/]]></link>
                <description><![CDATA[<article>
<blockquote class="messageText SelectQuoteContainer ugc baseHtml">
Hi! I'm searching for Juliana Gattas's, Vocalist from "Miranda!", solo debut album "Maquillada en la Cama", released today. On FLAC 16/44 or more. <img src="styles/default/xenforo/smilies/big_smile-48.png" class="mceSmilie" alt=":)" title="Smile    :)"><br>
<br>
Thanks!!
<div class="messageTextEndMarker">&nbsp;</div>
</blockquote>
</article>]]></description>
                <author><![CDATA[gato_stalin]]></author>
                </item>

                
                <item>
                <title><![CDATA[【MASTER &amp; MASTER RIP】MASTER - Ivi Adamou - Kano Mia Efhi [Master 720]]]></title>
                <link><![CDATA[https://sharemania.us/threads/ivi-adamou-kano-mia-efhi-master-720.239451/]]></link>
                <description><![CDATA[<article>
<blockquote class="messageText SelectQuoteContainer ugc baseHtml">
<div style="text-align: center"><img src="https://i.ibb.co/FYWGcx5/20240308014435.gif" class="bbCodeImage LbImage" alt="[​IMG]" data-url="https://i.ibb.co/FYWGcx5/20240308014435.gif" style=""><br>
​</div>
<div class="ToggleTriggerAnchor bbCodeSpoilerContainer">
<button type="button" class="button bbCodeSpoilerButton ToggleTrigger Tooltip JsOnly" data-target="> .SpoilerTarget"><span>Spoiler: <span class="SpoilerTitle">MASTER</span></span></button>
<div class="SpoilerTarget bbCodeSpoilerText">
<div class="bbCodeBlock bbCodeCode">
<div class="type">Code:</div>
<pre>Format                                   : MPEG-4
Format profile                           : QuickTime
Codec ID                                 : qt   2005.03 (qt  )
File size                                : 316 MiB
Duration                                 : 3 min 27 s
Overall bit rate                         : 12.8 Mb/s
Encoded date                             : UTC 2012-11-12 22:02:09
Tagged date                              : UTC 2012-11-12 22:02:40
Writing library                          : Apple QuickTime

Video
ID                                       : 2
Format                                   : AVC
Format/Info                              : Advanced Video Codec
Format profile                           : Main@L4.1
Format settings                          : 2 Ref Frames
Format settings, CABAC                   : No
Format settings, Reference frames        : 2 frames
Codec ID                                 : avc1
Codec ID/Info                            : Advanced Video Coding
Duration                                 : 3 min 27 s
Source duration                          : 8 min 32 s
Source_Duration_LastFrame                : 5 min 4 s
Bit rate                                 : 12.5 Mb/s
Width                                    : 1 280 pixels
Height                                   : 720 pixels
Display aspect ratio                     : 16:9
Frame rate mode                          : Constant
Frame rate                               : 25.000 FPS
Color space                              : YUV
Chroma subsampling                       : 4:2:0
Bit depth                                : 8 bits
Scan type                                : Progressive
Bits/(Pixel*Frame)                       : 0.542
Stream size                              : 309 MiB (98%)
Source stream size                       : 309 MiB (98%)
Language                                 : English
Encoded date                             : UTC 2012-11-12 22:01:42
Tagged date                              : UTC 2012-11-12 22:02:40
Color range                              : Limited
Color primaries                          : BT.709
Transfer characteristics                 : BT.709
Matrix coefficients                      : BT.709
Codec configuration box                  : avcC

Audio
ID                                       : 1
Format                                   : AAC LC
Format/Info                              : Advanced Audio Codec Low Complexity
Codec ID                                 : mp4a-40-2
Duration                                 : 3 min 27 s
Source duration                          : 3 min 27 s
Bit rate mode                            : Constant
Bit rate                                 : 320 kb/s
Channel(s)                               : 2 channels
Channel layout                           : L R
Sampling rate                            : 44.1 kHz
Frame rate                               : 43.066 FPS (1024 SPF)
Compression mode                         : Lossy
Stream size                              : 7.59 MiB (2%)
Source stream size                       : 7.59 MiB (2%)
Language                                 : English
Encoded date                             : UTC 2012-11-12 22:01:42
Tagged date                              : UTC 2012-11-12 22:02:40</pre>
</div><div style="text-align: center">​</div></div>
</div><div style="text-align: center"><br>
<div class="bbCodeBlock bbCodeVfcHH HiddenContent">
<div class="attribution type">Hidden Content:</div>
<blockquote>You must reply before you can see the hidden data contained here.</blockquote>
</div></div>
<div class="messageTextEndMarker">&nbsp;</div>
</blockquote>
</article>]]></description>
                <author><![CDATA[fstambuk]]></author>
                </item>

                </channel></rss>